<mxfile host="app.diagrams.net" agent="Mozilla/5.0 (Windows NT 10.0; Win64; x64) AppleWebKit/537.36 (KHTML, like Gecko) Chrome/134.0.0.0 Safari/537.36 Edg/134.0.0.0" version="26.1.0">
  <diagram name="Página-1" id="rUDR-M_P4TiWzMTvSUkf">
    <mxGraphModel dx="1358" dy="719" grid="1" gridSize="10" guides="1" tooltips="1" connect="1" arrows="1" fold="1" page="1" pageScale="1" pageWidth="827" pageHeight="1169" math="0" shadow="0">
      <root>
        <mxCell id="0" />
        <mxCell id="1" parent="0" />
        <mxCell id="DRG0LVVZQBghyRPISCv6-61" style="edgeStyle=orthogonalEdgeStyle;rounded=0;orthogonalLoop=1;jettySize=auto;html=1;endArrow=none;startFill=0;" edge="1" parent="1" source="DRG0LVVZQBghyRPISCv6-3">
          <mxGeometry relative="1" as="geometry">
            <mxPoint x="550" y="110" as="targetPoint" />
          </mxGeometry>
        </mxCell>
        <mxCell id="DRG0LVVZQBghyRPISCv6-3" value="Deposito" style="rounded=0;whiteSpace=wrap;html=1;" vertex="1" parent="1">
          <mxGeometry x="490" y="10" width="120" height="60" as="geometry" />
        </mxCell>
        <mxCell id="DRG0LVVZQBghyRPISCv6-8" style="edgeStyle=orthogonalEdgeStyle;rounded=0;orthogonalLoop=1;jettySize=auto;html=1;endArrow=none;startFill=0;" edge="1" parent="1" source="DRG0LVVZQBghyRPISCv6-4">
          <mxGeometry relative="1" as="geometry">
            <mxPoint x="170" y="280" as="targetPoint" />
          </mxGeometry>
        </mxCell>
        <mxCell id="DRG0LVVZQBghyRPISCv6-49" style="edgeStyle=orthogonalEdgeStyle;rounded=0;orthogonalLoop=1;jettySize=auto;html=1;entryX=0;entryY=0.5;entryDx=0;entryDy=0;endArrow=none;startFill=0;" edge="1" parent="1" source="DRG0LVVZQBghyRPISCv6-4" target="DRG0LVVZQBghyRPISCv6-48">
          <mxGeometry relative="1" as="geometry">
            <Array as="points">
              <mxPoint x="250" y="210" />
              <mxPoint x="250" y="350" />
            </Array>
          </mxGeometry>
        </mxCell>
        <mxCell id="DRG0LVVZQBghyRPISCv6-54" style="edgeStyle=orthogonalEdgeStyle;rounded=0;orthogonalLoop=1;jettySize=auto;html=1;entryX=0;entryY=0.5;entryDx=0;entryDy=0;endArrow=none;startFill=0;" edge="1" parent="1" source="DRG0LVVZQBghyRPISCv6-4" target="DRG0LVVZQBghyRPISCv6-53">
          <mxGeometry relative="1" as="geometry">
            <Array as="points">
              <mxPoint x="170" y="70" />
            </Array>
          </mxGeometry>
        </mxCell>
        <mxCell id="DRG0LVVZQBghyRPISCv6-4" value="caminhão" style="rounded=0;whiteSpace=wrap;html=1;" vertex="1" parent="1">
          <mxGeometry x="110" y="160" width="120" height="60" as="geometry" />
        </mxCell>
        <mxCell id="DRG0LVVZQBghyRPISCv6-10" style="edgeStyle=orthogonalEdgeStyle;rounded=0;orthogonalLoop=1;jettySize=auto;html=1;endArrow=none;startFill=0;" edge="1" parent="1" source="DRG0LVVZQBghyRPISCv6-5">
          <mxGeometry relative="1" as="geometry">
            <mxPoint x="610" y="300" as="targetPoint" />
          </mxGeometry>
        </mxCell>
        <mxCell id="DRG0LVVZQBghyRPISCv6-5" value="Mercadoria" style="rounded=0;whiteSpace=wrap;html=1;" vertex="1" parent="1">
          <mxGeometry x="550" y="160" width="120" height="60" as="geometry" />
        </mxCell>
        <mxCell id="DRG0LVVZQBghyRPISCv6-11" style="edgeStyle=orthogonalEdgeStyle;rounded=0;orthogonalLoop=1;jettySize=auto;html=1;endArrow=none;startFill=0;" edge="1" parent="1" source="DRG0LVVZQBghyRPISCv6-7">
          <mxGeometry relative="1" as="geometry">
            <mxPoint x="610" y="490" as="targetPoint" />
          </mxGeometry>
        </mxCell>
        <mxCell id="DRG0LVVZQBghyRPISCv6-7" value="Viagem" style="rounded=0;whiteSpace=wrap;html=1;" vertex="1" parent="1">
          <mxGeometry x="550" y="390" width="120" height="60" as="geometry" />
        </mxCell>
        <mxCell id="DRG0LVVZQBghyRPISCv6-12" value="" style="endArrow=oval;html=1;rounded=0;endFill=0;endSize=2;" edge="1" parent="1">
          <mxGeometry width="50" height="50" relative="1" as="geometry">
            <mxPoint x="170" y="254.89000000000001" as="sourcePoint" />
            <mxPoint x="200" y="254.89000000000001" as="targetPoint" />
            <Array as="points">
              <mxPoint x="190" y="254.89000000000001" />
            </Array>
          </mxGeometry>
        </mxCell>
        <mxCell id="DRG0LVVZQBghyRPISCv6-13" value="&lt;font style=&quot;font-size: 8px;&quot;&gt;Capacidade&lt;/font&gt;" style="text;html=1;align=center;verticalAlign=middle;resizable=0;points=[];autosize=1;strokeColor=none;fillColor=none;" vertex="1" parent="1">
          <mxGeometry x="190" y="240" width="70" height="30" as="geometry" />
        </mxCell>
        <mxCell id="DRG0LVVZQBghyRPISCv6-14" value="" style="endArrow=oval;html=1;rounded=0;endFill=0;endSize=2;" edge="1" parent="1">
          <mxGeometry width="50" height="50" relative="1" as="geometry">
            <mxPoint x="170" y="274.89" as="sourcePoint" />
            <mxPoint x="200" y="274.89" as="targetPoint" />
            <Array as="points">
              <mxPoint x="190" y="274.89" />
            </Array>
          </mxGeometry>
        </mxCell>
        <mxCell id="DRG0LVVZQBghyRPISCv6-15" value="&lt;span style=&quot;font-size: 8px;&quot;&gt;Peso&lt;/span&gt;" style="text;html=1;align=center;verticalAlign=middle;resizable=0;points=[];autosize=1;strokeColor=none;fillColor=none;" vertex="1" parent="1">
          <mxGeometry x="190" y="260" width="40" height="30" as="geometry" />
        </mxCell>
        <mxCell id="DRG0LVVZQBghyRPISCv6-17" value="" style="endArrow=oval;html=1;rounded=0;endFill=1;endSize=2;" edge="1" parent="1">
          <mxGeometry width="50" height="50" relative="1" as="geometry">
            <mxPoint x="170" y="234.89" as="sourcePoint" />
            <mxPoint x="200" y="234.89" as="targetPoint" />
            <Array as="points">
              <mxPoint x="190" y="234.89" />
            </Array>
          </mxGeometry>
        </mxCell>
        <mxCell id="DRG0LVVZQBghyRPISCv6-19" value="&lt;span style=&quot;font-size: 8px;&quot;&gt;&amp;nbsp; Placa&lt;/span&gt;" style="text;html=1;align=center;verticalAlign=middle;resizable=0;points=[];autosize=1;strokeColor=none;fillColor=none;" vertex="1" parent="1">
          <mxGeometry x="185" y="220" width="50" height="30" as="geometry" />
        </mxCell>
        <mxCell id="DRG0LVVZQBghyRPISCv6-20" value="&lt;span style=&quot;font-size: 8px;&quot;&gt;Código&lt;/span&gt;" style="text;html=1;align=center;verticalAlign=middle;resizable=0;points=[];autosize=1;strokeColor=none;fillColor=none;" vertex="1" parent="1">
          <mxGeometry x="630" y="450" width="50" height="30" as="geometry" />
        </mxCell>
        <mxCell id="DRG0LVVZQBghyRPISCv6-21" value="" style="endArrow=oval;html=1;rounded=0;endFill=1;endSize=2;" edge="1" parent="1">
          <mxGeometry width="50" height="50" relative="1" as="geometry">
            <mxPoint x="610" y="464.77" as="sourcePoint" />
            <mxPoint x="640" y="464.77" as="targetPoint" />
            <Array as="points">
              <mxPoint x="630" y="464.77" />
            </Array>
          </mxGeometry>
        </mxCell>
        <mxCell id="DRG0LVVZQBghyRPISCv6-23" value="" style="endArrow=oval;html=1;rounded=0;endFill=0;endSize=2;" edge="1" parent="1">
          <mxGeometry width="50" height="50" relative="1" as="geometry">
            <mxPoint x="610" y="484.77" as="sourcePoint" />
            <mxPoint x="640" y="484.77" as="targetPoint" />
            <Array as="points">
              <mxPoint x="630" y="484.77" />
            </Array>
          </mxGeometry>
        </mxCell>
        <mxCell id="DRG0LVVZQBghyRPISCv6-24" value="&lt;span style=&quot;font-size: 8px;&quot;&gt;Custo&lt;/span&gt;" style="text;html=1;align=center;verticalAlign=middle;resizable=0;points=[];autosize=1;strokeColor=none;fillColor=none;" vertex="1" parent="1">
          <mxGeometry x="635" y="470" width="40" height="30" as="geometry" />
        </mxCell>
        <mxCell id="DRG0LVVZQBghyRPISCv6-25" value="" style="endArrow=none;html=1;rounded=0;" edge="1" parent="1">
          <mxGeometry width="50" height="50" relative="1" as="geometry">
            <mxPoint x="670" y="490" as="sourcePoint" />
            <mxPoint x="670" y="520" as="targetPoint" />
          </mxGeometry>
        </mxCell>
        <mxCell id="DRG0LVVZQBghyRPISCv6-26" value="" style="endArrow=oval;html=1;rounded=0;endFill=0;endSize=2;" edge="1" parent="1">
          <mxGeometry width="50" height="50" relative="1" as="geometry">
            <mxPoint x="670" y="494.92" as="sourcePoint" />
            <mxPoint x="700" y="494.92" as="targetPoint" />
            <Array as="points">
              <mxPoint x="690" y="494.92" />
            </Array>
          </mxGeometry>
        </mxCell>
        <mxCell id="DRG0LVVZQBghyRPISCv6-27" value="&lt;span style=&quot;font-size: 8px;&quot;&gt;&amp;nbsp; &amp;nbsp; &amp;nbsp; &amp;nbsp;Pedágio&lt;/span&gt;" style="text;html=1;align=center;verticalAlign=middle;resizable=0;points=[];autosize=1;strokeColor=none;fillColor=none;" vertex="1" parent="1">
          <mxGeometry x="675" y="480" width="70" height="30" as="geometry" />
        </mxCell>
        <mxCell id="DRG0LVVZQBghyRPISCv6-29" value="" style="endArrow=oval;html=1;rounded=0;endFill=0;endSize=2;" edge="1" parent="1">
          <mxGeometry width="50" height="50" relative="1" as="geometry">
            <mxPoint x="670" y="514.92" as="sourcePoint" />
            <mxPoint x="700" y="514.92" as="targetPoint" />
            <Array as="points">
              <mxPoint x="690" y="514.92" />
            </Array>
          </mxGeometry>
        </mxCell>
        <mxCell id="DRG0LVVZQBghyRPISCv6-30" value="&lt;span style=&quot;font-size: 8px;&quot;&gt;&amp;nbsp; &amp;nbsp; &amp;nbsp; &amp;nbsp; &amp;nbsp; &amp;nbsp;Combusível&lt;/span&gt;" style="text;html=1;align=center;verticalAlign=middle;resizable=0;points=[];autosize=1;strokeColor=none;fillColor=none;" vertex="1" parent="1">
          <mxGeometry x="665" y="500" width="90" height="30" as="geometry" />
        </mxCell>
        <mxCell id="DRG0LVVZQBghyRPISCv6-34" value="" style="endArrow=oval;html=1;rounded=0;endFill=1;endSize=2;" edge="1" parent="1">
          <mxGeometry width="50" height="50" relative="1" as="geometry">
            <mxPoint x="610" y="234.76999999999998" as="sourcePoint" />
            <mxPoint x="640" y="234.76999999999998" as="targetPoint" />
            <Array as="points">
              <mxPoint x="630" y="234.76999999999998" />
            </Array>
          </mxGeometry>
        </mxCell>
        <mxCell id="DRG0LVVZQBghyRPISCv6-35" value="&lt;span style=&quot;font-size: 8px;&quot;&gt;Código&lt;/span&gt;" style="text;html=1;align=center;verticalAlign=middle;resizable=0;points=[];autosize=1;strokeColor=none;fillColor=none;" vertex="1" parent="1">
          <mxGeometry x="630" y="220" width="50" height="30" as="geometry" />
        </mxCell>
        <mxCell id="DRG0LVVZQBghyRPISCv6-37" value="" style="endArrow=oval;html=1;rounded=0;endFill=0;endSize=2;" edge="1" parent="1">
          <mxGeometry width="50" height="50" relative="1" as="geometry">
            <mxPoint x="610" y="254.80999999999997" as="sourcePoint" />
            <mxPoint x="640" y="254.80999999999997" as="targetPoint" />
            <Array as="points">
              <mxPoint x="630" y="254.80999999999997" />
            </Array>
          </mxGeometry>
        </mxCell>
        <mxCell id="DRG0LVVZQBghyRPISCv6-38" value="&lt;span style=&quot;font-size: 8px;&quot;&gt;Volume&lt;/span&gt;" style="text;html=1;align=center;verticalAlign=middle;resizable=0;points=[];autosize=1;strokeColor=none;fillColor=none;" vertex="1" parent="1">
          <mxGeometry x="630" y="240" width="50" height="30" as="geometry" />
        </mxCell>
        <mxCell id="DRG0LVVZQBghyRPISCv6-39" value="" style="endArrow=oval;html=1;rounded=0;endFill=0;endSize=2;" edge="1" parent="1">
          <mxGeometry width="50" height="50" relative="1" as="geometry">
            <mxPoint x="610" y="274.80999999999995" as="sourcePoint" />
            <mxPoint x="640" y="274.80999999999995" as="targetPoint" />
            <Array as="points">
              <mxPoint x="630" y="274.80999999999995" />
            </Array>
          </mxGeometry>
        </mxCell>
        <mxCell id="DRG0LVVZQBghyRPISCv6-40" value="&lt;span style=&quot;font-size: 8px;&quot;&gt;Peso&lt;/span&gt;" style="text;html=1;align=center;verticalAlign=middle;resizable=0;points=[];autosize=1;strokeColor=none;fillColor=none;" vertex="1" parent="1">
          <mxGeometry x="630" y="260" width="40" height="30" as="geometry" />
        </mxCell>
        <mxCell id="DRG0LVVZQBghyRPISCv6-41" value="" style="endArrow=oval;html=1;rounded=0;endFill=0;endSize=2;" edge="1" parent="1">
          <mxGeometry width="50" height="50" relative="1" as="geometry">
            <mxPoint x="610" y="292.80999999999995" as="sourcePoint" />
            <mxPoint x="640" y="292.80999999999995" as="targetPoint" />
            <Array as="points">
              <mxPoint x="630" y="292.80999999999995" />
            </Array>
          </mxGeometry>
        </mxCell>
        <mxCell id="DRG0LVVZQBghyRPISCv6-42" value="&lt;span style=&quot;font-size: 8px;&quot;&gt;Destino&lt;/span&gt;" style="text;html=1;align=center;verticalAlign=middle;resizable=0;points=[];autosize=1;strokeColor=none;fillColor=none;" vertex="1" parent="1">
          <mxGeometry x="630" y="278" width="50" height="30" as="geometry" />
        </mxCell>
        <mxCell id="DRG0LVVZQBghyRPISCv6-45" style="edgeStyle=orthogonalEdgeStyle;rounded=0;orthogonalLoop=1;jettySize=auto;html=1;entryX=0;entryY=0.5;entryDx=0;entryDy=0;endArrow=none;startFill=0;" edge="1" parent="1" source="DRG0LVVZQBghyRPISCv6-43" target="DRG0LVVZQBghyRPISCv6-5">
          <mxGeometry relative="1" as="geometry" />
        </mxCell>
        <mxCell id="DRG0LVVZQBghyRPISCv6-43" value="Transporta" style="rhombus;whiteSpace=wrap;html=1;" vertex="1" parent="1">
          <mxGeometry x="350" y="150" width="80" height="80" as="geometry" />
        </mxCell>
        <mxCell id="DRG0LVVZQBghyRPISCv6-44" style="edgeStyle=orthogonalEdgeStyle;rounded=0;orthogonalLoop=1;jettySize=auto;html=1;endArrow=none;startFill=0;" edge="1" parent="1" source="DRG0LVVZQBghyRPISCv6-4">
          <mxGeometry relative="1" as="geometry">
            <mxPoint x="350" y="190" as="targetPoint" />
          </mxGeometry>
        </mxCell>
        <mxCell id="DRG0LVVZQBghyRPISCv6-46" value="1" style="text;html=1;align=center;verticalAlign=middle;resizable=0;points=[];autosize=1;strokeColor=none;fillColor=none;" vertex="1" parent="1">
          <mxGeometry x="230" y="160" width="30" height="30" as="geometry" />
        </mxCell>
        <mxCell id="DRG0LVVZQBghyRPISCv6-47" value="N" style="text;html=1;align=center;verticalAlign=middle;resizable=0;points=[];autosize=1;strokeColor=none;fillColor=none;" vertex="1" parent="1">
          <mxGeometry x="520" y="160" width="30" height="30" as="geometry" />
        </mxCell>
        <mxCell id="DRG0LVVZQBghyRPISCv6-51" style="edgeStyle=orthogonalEdgeStyle;rounded=0;orthogonalLoop=1;jettySize=auto;html=1;entryX=0;entryY=0.5;entryDx=0;entryDy=0;endArrow=none;startFill=0;" edge="1" parent="1" source="DRG0LVVZQBghyRPISCv6-48" target="DRG0LVVZQBghyRPISCv6-7">
          <mxGeometry relative="1" as="geometry" />
        </mxCell>
        <mxCell id="DRG0LVVZQBghyRPISCv6-48" value="Realiza" style="rhombus;whiteSpace=wrap;html=1;" vertex="1" parent="1">
          <mxGeometry x="350" y="310" width="80" height="80" as="geometry" />
        </mxCell>
        <mxCell id="DRG0LVVZQBghyRPISCv6-50" value="1" style="text;html=1;align=center;verticalAlign=middle;resizable=0;points=[];autosize=1;strokeColor=none;fillColor=none;" vertex="1" parent="1">
          <mxGeometry x="230" y="190" width="30" height="30" as="geometry" />
        </mxCell>
        <mxCell id="DRG0LVVZQBghyRPISCv6-52" value="1" style="text;html=1;align=center;verticalAlign=middle;resizable=0;points=[];autosize=1;strokeColor=none;fillColor=none;" vertex="1" parent="1">
          <mxGeometry x="520" y="390" width="30" height="30" as="geometry" />
        </mxCell>
        <mxCell id="DRG0LVVZQBghyRPISCv6-55" style="edgeStyle=orthogonalEdgeStyle;rounded=0;orthogonalLoop=1;jettySize=auto;html=1;entryX=0;entryY=0.5;entryDx=0;entryDy=0;exitX=1;exitY=0.5;exitDx=0;exitDy=0;endArrow=none;startFill=0;" edge="1" parent="1" source="DRG0LVVZQBghyRPISCv6-53" target="DRG0LVVZQBghyRPISCv6-3">
          <mxGeometry relative="1" as="geometry">
            <Array as="points">
              <mxPoint x="350" y="40" />
            </Array>
          </mxGeometry>
        </mxCell>
        <mxCell id="DRG0LVVZQBghyRPISCv6-53" value="Entrega" style="rhombus;whiteSpace=wrap;html=1;" vertex="1" parent="1">
          <mxGeometry x="270" y="30" width="80" height="80" as="geometry" />
        </mxCell>
        <mxCell id="DRG0LVVZQBghyRPISCv6-56" value="1" style="text;html=1;align=center;verticalAlign=middle;resizable=0;points=[];autosize=1;strokeColor=none;fillColor=none;" vertex="1" parent="1">
          <mxGeometry x="170" y="130" width="30" height="30" as="geometry" />
        </mxCell>
        <mxCell id="DRG0LVVZQBghyRPISCv6-58" value="N" style="text;html=1;align=center;verticalAlign=middle;resizable=0;points=[];autosize=1;strokeColor=none;fillColor=none;" vertex="1" parent="1">
          <mxGeometry x="460" y="10" width="30" height="30" as="geometry" />
        </mxCell>
        <mxCell id="DRG0LVVZQBghyRPISCv6-60" value="" style="endArrow=oval;html=1;rounded=0;endFill=1;endSize=2;" edge="1" parent="1">
          <mxGeometry width="50" height="50" relative="1" as="geometry">
            <mxPoint x="550" y="84.80999999999997" as="sourcePoint" />
            <mxPoint x="580" y="84.80999999999997" as="targetPoint" />
            <Array as="points">
              <mxPoint x="570" y="84.80999999999997" />
            </Array>
          </mxGeometry>
        </mxCell>
        <mxCell id="DRG0LVVZQBghyRPISCv6-62" value="&lt;span style=&quot;font-size: 8px;&quot;&gt;Endereço&lt;/span&gt;" style="text;html=1;align=center;verticalAlign=middle;resizable=0;points=[];autosize=1;strokeColor=none;fillColor=none;" vertex="1" parent="1">
          <mxGeometry x="570" y="70" width="60" height="30" as="geometry" />
        </mxCell>
        <mxCell id="DRG0LVVZQBghyRPISCv6-63" value="&lt;span style=&quot;font-size: 8px;&quot;&gt;Capacidade&lt;/span&gt;" style="text;html=1;align=center;verticalAlign=middle;resizable=0;points=[];autosize=1;strokeColor=none;fillColor=none;" vertex="1" parent="1">
          <mxGeometry x="570" y="90" width="70" height="30" as="geometry" />
        </mxCell>
        <mxCell id="DRG0LVVZQBghyRPISCv6-64" value="" style="endArrow=oval;html=1;rounded=0;endFill=0;endSize=2;" edge="1" parent="1">
          <mxGeometry width="50" height="50" relative="1" as="geometry">
            <mxPoint x="550" y="104.80999999999997" as="sourcePoint" />
            <mxPoint x="580" y="104.80999999999997" as="targetPoint" />
            <Array as="points">
              <mxPoint x="570" y="104.80999999999997" />
            </Array>
          </mxGeometry>
        </mxCell>
        <mxCell id="DRG0LVVZQBghyRPISCv6-65" value="Armazena" style="rhombus;whiteSpace=wrap;html=1;" vertex="1" parent="1">
          <mxGeometry x="690" y="65" width="80" height="80" as="geometry" />
        </mxCell>
        <mxCell id="DRG0LVVZQBghyRPISCv6-66" style="edgeStyle=orthogonalEdgeStyle;rounded=0;orthogonalLoop=1;jettySize=auto;html=1;endArrow=none;startFill=0;" edge="1" parent="1" source="DRG0LVVZQBghyRPISCv6-3">
          <mxGeometry relative="1" as="geometry">
            <mxPoint x="690" y="105" as="targetPoint" />
          </mxGeometry>
        </mxCell>
        <mxCell id="DRG0LVVZQBghyRPISCv6-67" value="1" style="text;html=1;align=center;verticalAlign=middle;resizable=0;points=[];autosize=1;strokeColor=none;fillColor=none;" vertex="1" parent="1">
          <mxGeometry x="610" y="10" width="30" height="30" as="geometry" />
        </mxCell>
        <mxCell id="DRG0LVVZQBghyRPISCv6-68" style="edgeStyle=orthogonalEdgeStyle;rounded=0;orthogonalLoop=1;jettySize=auto;html=1;entryX=1.006;entryY=0.683;entryDx=0;entryDy=0;entryPerimeter=0;endArrow=none;startFill=0;" edge="1" parent="1" source="DRG0LVVZQBghyRPISCv6-65" target="DRG0LVVZQBghyRPISCv6-5">
          <mxGeometry relative="1" as="geometry">
            <Array as="points">
              <mxPoint x="790" y="105" />
              <mxPoint x="790" y="165" />
              <mxPoint x="690" y="165" />
              <mxPoint x="690" y="201" />
            </Array>
          </mxGeometry>
        </mxCell>
        <mxCell id="DRG0LVVZQBghyRPISCv6-69" value="N" style="text;html=1;align=center;verticalAlign=middle;resizable=0;points=[];autosize=1;strokeColor=none;fillColor=none;" vertex="1" parent="1">
          <mxGeometry x="665" y="175" width="30" height="30" as="geometry" />
        </mxCell>
      </root>
    </mxGraphModel>
  </diagram>
</mxfile>
